# xmcd CD Database Entry
#
# Track frame offsets:
# 150
# 19262
# 38257
# 53040
# 67920
# 83300
# 95307
# 119000
# 141755
# 168517
# 184130
# 201625
# 215682
# 239007
# 253382
# 279940
#
# Disc length: 4058 seconds
#
# Revision: 2
# Processed by: cddbd v1.4PL0 Copyright (c) Steve Scherf et al.
# Submitted via: tcd 2.0b
#
DISCID=e60fd810
DTITLE=Lata Mangeshkar - Classical Songs from Films
DYEAR=1900
DGENRE=
TTITLE0=Ja Ja Re Ja
TTITLE1=Man Mohana
TTITLE2=Jhan Jhan Payal
TTITLE3=Pawan Diwani
TTITLE4=Chham Chham Nachat Aai Bahar
TTITLE5=Dar Lage
TTITLE6=Pee Kee Nagariya
TTITLE7=Kal Nahin Paye
TTITLE8=Khanak gayo
TTITLE9=Jao Re Jogi
TTITLE10=Chahe To Mera
TTITLE11=Jiya Na Lage Mora
TTITLE12=Bhor Bahyee Panchhee
TTITLE13=Kahe Manva Nache
TTITLE14=Jaiye Ham Se
TTITLE15=Kesariya Balama
EXTD=
EXTT0=
EXTT1=
EXTT2=
EXTT3=
EXTT4=
EXTT5=
EXTT6=
EXTT7=
EXTT8=
EXTT9=
EXTT10=
EXTT11=
EXTT12=
EXTT13=
EXTT14=
EXTT15=
PLAYORDER=
